<svg height='100px' width='100px'  fill="#000000" xmlns="http://www.w3.org/2000/svg" xmlns:xlink="http://www.w3.org/1999/xlink" version="1.1" x="0px" y="0px" viewBox="0 0 100 100" enable-background="new 0 0 100 100" xml:space="preserve"><path d="M7.938,90c-0.165,0-0.324-0.131-0.443-0.246c-0.128-0.125-0.198-0.33-0.193-0.508c0.018-0.65,0.466-15.965,3.63-20.109  c2.058-2.696,5.909-4.642,7.543-5.382L5.626,46.563c-0.138-0.186-0.166-0.433-0.07-0.644c0.095-0.211,0.297-0.356,0.527-0.375  l12.153-1.008c-2.485-1.857-7.052-5.763-6.21-8.836c1.088-3.973,5.042-5.176,8.531-6.236c2.134-0.649,4.149-1.261,4.888-2.396  c0.888-1.367,1.142-4.153,1.387-6.847c0.38-4.169,0.772-8.479,3.478-9.633c0.905-0.385,2.033-0.581,3.353-0.581  c3.692,0,8.511,1.522,12.383,2.745c2.465,0.779,4.595,1.452,5.932,1.599c0.284,0.031,0.586,0.048,0.896,0.048  c1.476,0,3.002-0.343,4.615-0.708c1.628-0.366,3.311-0.745,4.956-0.745c1.671,0,3.098,0.393,4.363,1.201  c1.979,1.261,2.328,4.808,2.666,8.238c0.271,2.737,0.548,5.566,1.622,6.412c0.783,0.615,2.148,0.838,3.594,1.074  c2.487,0.405,5.583,0.91,7.345,3.743c1.378,2.215,1.778,4.318,1.189,6.25c-0.479,1.571-1.524,2.725-2.465,3.492l10.432,0.208  c0.242,0.004,0.46,0.146,0.563,0.365c0.104,0.219,0.073,0.477-0.077,0.667L78.729,60.858c2.478,0.266,8.05,1.411,11.825,6.291  c3.161,4.086,3.915,16.633,3.945,17.166c0.011,0.169-0.047,0.333-0.16,0.459c-0.111,0.126-0.271,0.271-0.438,0.278L7.975,90  C7.962,90,7.951,90,7.938,90z M7.333,46.718l12.645,16.915c0.119,0.158,0.156,0.363,0.103,0.555  c-0.053,0.189-0.193,0.344-0.377,0.417c-0.053,0.021-5.374,2.16-7.76,5.288C9.385,73.245,8.726,85.501,8.6,88.555l84.585-4.801  c-0.196-2.614-1.098-12.544-3.637-15.826c-4.499-5.812-12-5.88-12.075-5.88c-0.244,0-0.467-0.14-0.573-0.359  c-0.105-0.221-0.076-0.482,0.076-0.674l12.902-16.206l-11.226-0.222c-0.297-0.006-0.552-0.217-0.611-0.508  c-0.059-0.292,0.092-0.585,0.363-0.707c0.026-0.014,2.823-1.311,3.603-3.888c0.475-1.563,0.119-3.313-1.054-5.2  c-1.457-2.341-4.004-2.757-6.468-3.159c-1.613-0.263-3.136-0.51-4.177-1.33c-1.5-1.18-1.793-4.146-2.103-7.287  c-0.293-2.982-0.626-6.36-2.083-7.291c-1.056-0.673-2.259-1-3.68-1c-1.504,0-3.117,0.363-4.676,0.714  c-1.611,0.362-3.279,0.737-4.896,0.737c-0.355,0-0.704-0.019-1.034-0.055c-1.462-0.161-3.646-0.851-6.176-1.65  c-3.789-1.197-8.503-2.687-12-2.687c-1.146,0-2.108,0.162-2.854,0.48c-2.006,0.855-2.38,4.958-2.709,8.578  c-0.272,2.98-0.528,5.794-1.587,7.425c-0.991,1.524-3.222,2.202-5.584,2.921c-3.328,1.011-6.771,2.058-7.673,5.354  c-0.633,2.309,4.034,6.413,7.124,8.458c0.226,0.149,0.333,0.427,0.266,0.688c-0.067,0.263-0.294,0.454-0.564,0.476L7.333,46.718z"></path><path d="M51.351,62.713c-6.313,1.321-8.266-3.966-9.424-6.597c-0.436-0.988-0.647-5.122,0.429-5.022  c5.322,0.493,13.847-0.328,17.412-0.896C65.223,49.327,58.235,61.271,51.351,62.713z"></path><path d="M30.241,59.495c5.146,2.062,7.62-2.1,8.96-4.176c0.63-0.978,1.388-4.339,0.463-4.416c-4.577-0.376-11.747-2.388-14.68-3.402  C20.499,45.951,24.63,57.248,30.241,59.495z"></path><path d="M28.829,33.1c5.739,3.336,22.537,6.363,36.052,0.707c5.634-2.357,5.147,0.446,1.944,1.944  c-15.942,7.459-32.256,3.201-39.411-0.67C23.865,33.159,26,31.457,28.829,33.1z"></path></svg>